<?xml version="1.0" encoding="utf-8"?>
<!-- Generator: Adobe Illustrator 26.0.1, SVG Export Plug-In . SVG Version: 6.00 Build 0)  -->
<svg version="1.1" id="Layer_1" xmlns="http://www.w3.org/2000/svg" xmlns:xlink="http://www.w3.org/1999/xlink" x="0px" y="0px"
	 viewBox="0 0 400 397" style="enable-background:new 0 0 400 397;" xml:space="preserve">
<style type="text/css">
	.st0{fill:#FFFFFF;}
</style>
<path class="st0" d="M201.5,0c112.4,1.6,201.1,92.5,198.4,205.4c-2.6,111.9-97.5,196.3-208.5,191.3C85.8,392.1-2.3,306.8,0,193.5
	C2.2,88.1,95-1.5,201.5,0z M202.3,63.5h-0.2V51.2c0-11,8.8-19.5,19.6-18.6c22.3,1.8,42.7,9.6,61.9,20.7c3.3,1.9,7.1,4.4,9.9,0.1
	s-0.7-6.8-4.1-8.8c-20.8-12.2-43-20.4-67.1-22.7c-5.1-0.5-9.2-0.9-13.2-5.2c-5.1-5.6-14.6-4.3-19.3,1.2s-5.2,15.9,1.1,19.3
	c8,4.3,7.3,10.4,7.2,17.2c-0.1,5-0.6,10.1,0.1,15.1c1.3,10.3-0.9,15.3-12.9,17.9c-29.4,6.4-44,29.9-44.6,64.4
	c-0.1,8.8,2.2,11.2,10.9,10.9c7.2-0.2,10.4-1.9,9.5-9.5c-0.4-4.1-0.4-8.2,0-12.2c1.8-19.9,18-35.5,38-36.4
	c19-0.8,37.1,13.6,40.2,32.7c1,6.4,0.6,13.2,0.4,19.8c-0.2,5.2,3,5.9,6.6,5.2c4.5-1,12.2,3.9,13-4.4c2.9-29.8-6-56.4-39.9-70.1
	c-5.6-2.3-14.1,0.8-16.7-5.6C200.6,76.7,202.3,69.8,202.3,63.5L202.3,63.5z M30.7,210.2c5.7,0.1,9.2-2.4,11.5-7.2
	c2.4-5.1,1-10.8-3-12.5c-9.1-4.1-7.6-10.9-6.5-17.8c8.8-54.5,39-93.9,86.1-121.1c8.1-4.7,17.2-7.6,25.9-11.1c3.7-1.5,9-2.3,7.4-7.6
	c-1.8-5.9-6.7-4.1-11-2.3c-17.6,7.4-35.2,14.3-50.6,26.7C65.1,77.6,45.9,102,32.9,131.6c-9.3,21.3-11.5,44.1-13.7,66.8
	C18.5,206.1,24.1,209.3,30.7,210.2z M200.5,270.2c11.9-0.1,19.2-10.5,15.3-21.9c-1.3-4.2-2.9-8.3-4.8-12.2c-2.9-5.6-3.9-9.1,3-13.5
	c10.1-6.5,10.8-21.3,2.9-30.8c-7.6-9.2-21.1-10.5-30.3-3c-9.5,7.8-12.2,23.5-2.8,30.6c10.7,8.1,6.7,15,2.9,23.2
	c-0.8,1.7-1.4,3.5-2,5.2C180.6,260,188,270.3,200.5,270.2L200.5,270.2z M199.5,297.3c-2.1,4-1.4,7.5-1.5,10.9
	c-0.1,13.8,0.1,27.6-0.1,41.5c-0.1,6.6-12,16.4-18.5,15.6c-21.2-2.4-40.9-9.4-59.7-19.1c-3.2-1.7-7.1-4.6-9.8,0.2
	c-2.8,5,1.2,7.2,5,9.2c17.7,9.1,36.1,15.7,55.9,18.8c7.7,1.2,15.7,1,22.4,7.5c4.6,4.5,12.1,3.3,17-2c2.6-2.8,5.2-3.7,8.9-4
	c22.3-1.9,43.9-8.3,63.7-18.6c1.7-0.7,3.3-1.7,4.9-2.8c2-1.7,3-3.9,1.5-6.7c-1.3-2.4-3.5-2.6-5.7-2.1c-2.1,0.6-4.2,1.4-6.1,2.4
	c-18,9-37.3,15-57.2,17.6c-2.1,0.3-5.2,1.7-6.2-0.2c-4.3-7.5-14.7-10.8-12.2-23.1c2.2-11.5,0.6-23.8,0.4-35.7
	C202,303.9,203.4,300.5,199.5,297.3L199.5,297.3z M278.5,222.4c0-13.8,0-27.6,0-41.4c0-9.1-4.4-14.9-11.2-14.2
	c-8.2,0.8-10.6,6.5-10.5,14c0.1,27.6,0,55.2,0.1,82.8c0,9.3,4.2,14.8,11.2,14.2c8.4-0.7,10.6-6.7,10.6-14
	C278.6,250,278.6,236.2,278.5,222.4L278.5,222.4z M122.4,221.3L122.4,221.3c0,14.4,0.1,28.8,0,43.2c0,7.6,2.8,13.4,11.1,13.2
	c7.8-0.2,10.2-5.7,10.2-13c-0.1-28.2-0.1-56.4,0-84.6c0-7.7-2.9-13.3-11.1-13.2c-7.8,0.1-10.2,5.8-10.2,13
	C122.5,193.7,122.4,207.5,122.4,221.3z M379.7,211.5c-8.6-1.2-10.5,3.4-11.3,10.1c-4.8,37.1-20.1,69-46.9,95.3
	c-3.1,3.1-7.5,6.6-2.7,10.9c4.2,3.8,7.4-0.6,10.2-3.4c14.7-14.3,26.6-31.1,35.2-49.7C373.4,254.6,379.1,233.6,379.7,211.5z
	 M88.6,328.4c0-1.7-0.3-2.8-4.1-6c-22.2-19.6-37.3-43.8-46.2-71.9c-1.2-3.9-2.8-7.6-7.6-6.1s-4,5.3-2.6,9.3
	c4.7,14,10.9,27.4,18.5,40c8.4,13.8,19.1,25.7,30.8,36.7c2.4,2.2,4.8,4.2,8.3,2.6C87.5,332,88.2,330.3,88.6,328.4z M165.9,74.4
	c6.1,0.2,9.6-2.4,11.2-6.9c1.8-5,0.2-9.3-4.2-12.4c-4.1-2.8-9.7-3.4-12,0.4c-6,10-16.3,10.1-25.5,13c-3.7,1.2-6.3,2.8-6.2,7
	c0.1,8.8-6.2,14.6-11.3,19.8c-4.7,4.8-7,9-6.4,15.4c0.7,8.1,0.8,15.8-11.5,12.1c-3.6-1.1-6.5,1.9-7.3,5.8c-0.7,3.4,0.6,6.3,3.9,7.7
	c3.6,1.4,6.6,0.7,9.2-2.5c6.4-7.9,12.1-15.5,10.1-27c-1-5.8,4.2-9.9,10.1-9c4.2,0.6,7.3,0.8,9.9-2.7c2.9-3.7,1-6.7-1.1-10.2
	c-2.3-4-3.9-10.6,1.6-11.9c8-1.9,16.8-10.3,25.2-0.2C162.7,74.1,165.1,74.2,165.9,74.4z M118.5,221.4L118.5,221.4
	c0.1-8.5,0.1-16.9,0.1-25.4c0-4.8-0.2-10.3-6.8-10.2c-6,0-7.6,4.8-7.6,9.9c-0.1,17.6-0.1,35.1,0,52.6c0,4.7,1.5,9,7.2,9.2
	c6,0.2,7-4.3,7.1-8.9C118.6,239.5,118.5,230.5,118.5,221.4z M296.4,221.4c0-8.5-0.1-17,0-25.4c0.1-5.3-1.3-9.9-7.2-10.2
	c-6.6-0.3-7,4.9-7,9.9c-0.1,17.6-0.1,35.1-0.1,52.7c0,4.7,1,9.2,6.9,9.2c5.6,0,7.4-3.8,7.4-8.9C296.4,239.6,296.4,230.5,296.4,221.4
	L296.4,221.4z M298.1,283.5c5.6,3.4,12,1.7,17.2,7c3,3.1,8.5,0.7,9.6-5c0.5-2.7-0.1-5.9,2.8-7.5c8.6-5,8.6-12.9,8-21.3
	c-0.3-4.2-0.5-8,4.4-11c6-3.7,5.7-10.9,0.4-16.1c-5.5-5.4-7.5-25.3-2.5-31.6c3.3-4.2,3.9-7.9,0-11.5c-2.4-2.5-6.5-2.6-9-0.2
	c-0.1,0.1-0.2,0.2-0.3,0.3c-3.7,3.7-2.9,7.4,0.5,11.5c5.1,6.2,3.1,25.4-2.7,31.5c-4.2,4.5-5.8,10.7-0.9,14.1
	c9.3,6.4,5.5,14.9,5.4,22.8c0,5.2-5.3,9.9-8.8,9.7C313,275.8,307.7,285.8,298.1,283.5z M102.8,101.4l-2.6-2.8
	c-7.4,7.1-14.5,14.5-22.2,21.1c-5.7,4.9-8.7,10.2-7.7,17.9c0.6,4.4-0.1,8-4.3,11.4c-5.5,4.5-5.3,10.9,0.3,15.4
	c3.5,2.8,4.2,5.7,4.1,9.6c-0.2,9.1-0.2,18.2,0,27.3c0.1,4.8-0.7,9.8,3.2,16.1c2.6-15.3,1.1-28.8,1.4-42.2c0.1-4-0.2-7.4,4.2-10.4
	c6.4-4.3,6.2-11.7,0-16.6c-3.1-2.4-4-4.7-4.3-8.4c-0.8-7.9,1.6-13.6,7.7-18.8C89.8,115.1,96.1,108,102.8,101.4z M371,209.8
	c7.4,0.1,13.3-6.9,10.9-13.4c-1.5-4.4-2.3-9-2.3-13.6c-0.6-11-3.2-21.6-6.3-32.1c-1.1-3.8-2.4-8.8-7.9-7s-3.3,6.6-2.2,10.4
	c2.4,8.4,4.3,17,5.6,25.6c0.7,4.6,1.3,7.9-3.7,11c-3.7,2.2-5.2,6.8-3.2,11.6C363.7,206.8,366.8,209.3,371,209.8z M333.1,172.9
	c1-1.1,1.6-1.5,1.8-2.1c2.7-7.6-7-8.8-7.5-13.5s7.1-10.6,2.1-15c-6.5-5.8-6-12.4-6.1-19.5c0-2.2-1.2-4.3-3-5.6
	c-10-7.8-17.4-20.6-33.4-17.5c-1.7,0.3-3.8-1.8-5.8-2.5c-4-1.5-7.4-0.8-9.8,3s-1.1,6.8,1.9,9c3.5,2.6,7.7,2.7,9.9-1.1
	c2.7-4.7,6.5-4.1,10.4-4.1c5.5,0,24.6,13.5,25.2,18.9c0.6,5.4,3.1,11.2-4.1,15.7c-7.9,4.9-6,14.2,2.9,18.4
	C324.5,160.3,330.6,164.3,333.1,172.9z M177.9,297.9c-0.5,0.3-1.4,0.4-1.5,0.8c-0.4,1.5-0.7,3-0.8,4.5c-0.7,9.9-11.2,15.2-20.1,10.2
	c-5.3-3-10.5-2.7-14.1,2.4c-2.1,3-4.3,3.9-7.7,3.9c-9,0.1-14.5-4.2-17.4-12.5c-1.5-4.2-4.9-5.9-9-4.5c-3.6,1.2-5.7,4.1-5,8
	c0.8,4.2,4.2,7.4,8,6c5.1-1.9,7.7,0.7,10.7,3.4s6.2,4,10.3,3.6c4.2-0.4,7.2,0.6,10,4.7c4.8,7.1,15.3,6.2,18.1-1.8
	c2-5.7,5.6-7.5,10.3-9.3C180.9,312.9,182,310.2,177.9,297.9z M110.9,291.7c-6.3-3.3-13.2-1.8-19.8-2.5c-3.2-0.3-7.6,2-9.1-2.4
	c-1.4-4-0.1-7.3,4-10.3c6.4-4.8,6.2-12.4-0.6-16.4c-6.4-3.7-6.6-7-3-12.6c2.5-3.9,1.7-8.2-2.7-10.5c-3.2-1.7-7-1.4-9.3,2
	c-2.8,4.1-1.7,7.8,2.3,10.5c4.8,3.3,4.6,6.7,0.4,10.4c-4.3,3.8-6.4,9.1-2.7,13.3c4.4,4.9,8.3,9.2,7.9,16.4c-0.1,1.9,2.7,3.7,5,3.7
	C92.4,293.2,101.7,294.3,110.9,291.7z M231.7,53.3c-5.4,0.1-9,2.7-10.4,7.8c-1.3,4.7,0.1,8.8,4.3,11.5c4.8,3.1,10.5,3.3,13.5-1.3
	c3.5-5.3,6.7-3.5,10.9-2.2c3.8,1.2,6.3,3.7,9,6.3c3.1,3.1,6.9,2.9,10.1-0.3c2.3-2.3,3.4-5.2,1.2-8.5c-2.4-3.8-6.1-5.4-9.6-3.3
	c-9,5.5-15,1.7-20.2-5.5C238.6,54.9,235.2,53.2,231.7,53.3z M222.8,297.4c-1,1-1.6,1.4-1.6,1.8c-0.2,6.6-0.4,13.1-0.4,19.7
	c0,8.4,5.2,13.6,13.8,13.9c7.5,0.2,15.1-0.4,22.6,0.1c7.2,0.5,12.4-1.8,17.3-7c4.4-4.8,8.1-11,16.7-9.8c3.3,0.5,5.3-3,5.3-6.5
	c0-3.9-2-6.6-5.9-7.3s-6.5,1.2-8,4.9c-5.9,14.5-15.2,23.7-32.2,21.6c-4-0.5-8.1,0-12.2-0.1c-10.7-0.1-13-2.6-13.5-13.1
	C224.2,309.8,226.2,303.5,222.8,297.4z M330.3,74.6c-0.3-6.9-5.7-12.4-12.6-12.8c-6.6-0.1-12.7,5.7-13,12.4c-0.3,7,6,13.3,13.1,13.2
	C324.4,87.3,330.3,81.2,330.3,74.6z M365.8,128.9c-5.5-12.7-12.1-24.7-21.1-35.2c-1.8-2.1-4.5-1.9-6.7,0s-2.6,4.2-0.9,6.7
	c7,10,13.6,20.2,18.5,31.4c1.1,2.6,3.5,3.5,6.2,2.8S365.6,131.6,365.8,128.9z M300.1,222c0,3.4-0.1,6.9,0,10.4
	c0.1,2-0.8,4.9,2.2,5.4c2.4,0.4,4.6-1.3,5-3.7c0-0.2,0.1-0.5,0.1-0.8c0.3-7.8,0.2-15.7-0.1-23.5c-0.1-2.3-2.1-4.1-4.4-4
	c0,0,0,0-0.1,0c-3.4,0-2.6,2.9-2.7,4.9C300,214.5,300.1,218.3,300.1,222L300.1,222z M100.5,221.4L100.5,221.4
	c0.1-3.4,0.2-6.9,0.1-10.3c-0.1-2,0.7-4.9-2.4-5.2c-2.2-0.3-4.3,1.3-4.6,3.5c0,0.1,0,0.2,0,0.3c-0.3,8.1-0.4,16.2-0.1,24.4
	c0.2,2.4,2.2,4.1,4.6,4c3-0.4,2.5-3.1,2.5-5.2C100.5,228.9,100.5,225.1,100.5,221.4L100.5,221.4z M255.7,298.2
	c-0.3-4.4-2.3-7.2-6.9-7.3s-7,2.4-7.2,6.9c-0.2,4.7,2.6,7.2,6.8,7.4S255.4,302.8,255.7,298.2z M20.8,210.8c1.3,5.8-2,13,6.1,15.8
	c2.9,1,5-1.6,5.5-4.8C33.7,213.4,28.4,211.4,20.8,210.8z M183.3,339.3c-0.3-3.4-2.9-5.7-6.7-5.7c-3.4-0.2-6.3,2.4-6.5,5.7
	c0,0.3,0,0.6,0,0.9c0.1,4.1,2.7,6.4,6.7,6.3S183.3,344.3,183.3,339.3z M108.6,165.8c-0.3-3.6-2.5-6.1-5.9-6.1s-6.1,2.2-6.1,5.8
	c0,3.9,2.4,6.6,6.4,6.5C106.7,172,108.3,169.2,108.6,165.8z M304,165.9c-0.2-3.6-2.3-6-5.7-6.2c-3-0.4-5.7,1.8-6.1,4.8
	c0,0.3,0,0.6,0,0.9c-0.1,4,1.9,6.8,6,6.7C301.7,172,303.7,169.6,304,165.9L304,165.9z M298.1,123.6c-3.4,0.7-5.9,2.2-5.9,6
	c0,3.6,2,6.2,5.4,6.3c3.8,0.2,6.5-2.1,6.3-6.3C303.9,126.1,301.3,124.4,298.1,123.6L298.1,123.6z"/>
<path class="st0" d="M200,32.4c-2.9-1-5.5-2.5-5-5.9c0.5-3,2.8-5.1,6-4.5c2.6,0.3,4.6,2.6,4.5,5.2C205.3,30.4,202.9,31.8,200,32.4z"
	/>
<path class="st0" d="M205.7,369.9c-0.1,2.9-2.4,5.3-5.3,5.4c-2.6,0.4-5.1-1.4-5.4-4.1c0-0.3-0.1-0.6,0-0.9c-0.2-2.8,1.9-5.2,4.6-5.4
	c0.2,0,0.3,0,0.5,0C203.3,364.9,205,366.9,205.7,369.9z"/>
</svg>
