<svg id="Layer_1" data-name="Layer 1" xmlns="http://www.w3.org/2000/svg" viewBox="0 0 400 396.98"><defs><style>.cls-1{fill:#fff;}</style></defs><title>logo</title><path class="cls-1" d="M202.61,3.22C315,4.78,403.69,95.68,401,208.66,398.4,320.55,303.46,404.92,192.5,400,86.88,395.28-1.22,310,1.14,196.69,3.33,91.28,96.09,1.75,202.61,3.22Zm.82,63.45h-.18V54.42c0-11,8.83-19.5,19.64-18.62,22.31,1.82,42.67,9.6,61.92,20.66,3.34,1.92,7.13,4.36,9.94.12s-.7-6.84-4.12-8.85c-20.8-12.25-43-20.39-67.15-22.71-5.08-.49-9.24-.92-13.2-5.25-5.06-5.55-14.6-4.28-19.31,1.24s-5.24,15.87,1.06,19.3c8,4.34,7.26,10.44,7.16,17.18-.08,5-.56,10.12.08,15.06,1.34,10.32-.91,15.29-12.92,17.93-29.35,6.45-44,29.88-44.6,64.43-.14,8.75,2.21,11.23,10.85,10.94,7.22-.23,10.43-1.89,9.51-9.49a59.52,59.52,0,0,1,0-12.23,39.93,39.93,0,0,1,38-36.37c19-.83,37.14,13.6,40.22,32.71,1,6.45.65,13.17.44,19.75-.17,5.23,3,5.93,6.64,5.16,4.52-1,12.2,3.94,13-4.39,2.94-29.75-6-56.36-39.91-70.07-5.63-2.28-14.12.83-16.68-5.59C201.71,79.91,203.43,73,203.43,66.67ZM31.79,213.41c5.74.1,9.22-2.36,11.45-7.17,2.39-5.15,1-10.75-3-12.54-9.14-4.08-7.58-10.89-6.47-17.8,8.8-54.47,39-93.88,86.07-121.09,8.07-4.66,17.16-7.6,25.85-11.14,3.74-1.52,9-2.28,7.44-7.61-1.75-5.93-6.73-4.12-11-2.34C124.51,41.15,106.92,48,91.49,60.38,66.14,80.77,47,105.23,34,134.84c-9.32,21.28-11.48,44.07-13.68,66.78C19.6,209.29,25.17,212.54,31.79,213.41Zm169.83,60c11.91-.1,19.24-10.49,15.34-21.89a88.44,88.44,0,0,0-4.8-12.23c-2.91-5.55-3.91-9.06,3-13.47,10.15-6.49,10.75-21.29,2.87-30.77a21.64,21.64,0,0,0-30.34-3c-9.47,7.78-12.22,23.48-2.77,30.56,10.74,8.06,6.7,15,2.86,23.25a53.53,53.53,0,0,0-2,5.25C181.71,263.19,189.09,273.54,201.62,273.43Zm-1,27.08c-2.08,4.05-1.44,7.55-1.46,10.92-.07,13.82.05,27.65-.07,41.48-.06,6.63-12,16.37-18.51,15.63-21.17-2.41-40.87-9.35-59.71-19.06-3.22-1.66-7.1-4.58-9.81.22-2.83,5,1.15,7.18,5,9.17,17.68,9.11,36.13,15.72,55.88,18.81,7.7,1.21,15.66,1,22.36,7.55,4.62,4.52,12.08,3.28,17-2,2.6-2.82,5.22-3.74,8.89-4.05a167.81,167.81,0,0,0,63.67-18.64,24,24,0,0,0,4.85-2.82c2-1.73,3-3.9,1.53-6.66-1.33-2.43-3.48-2.6-5.67-2.06a28.62,28.62,0,0,0-6.09,2.38A180.66,180.66,0,0,1,221.25,369c-2.13.31-5.17,1.69-6.22-.16-4.28-7.48-14.66-10.8-12.25-23.15,2.24-11.5.56-23.79.39-35.73C203.12,307.07,204.45,303.75,200.66,300.51Zm79-74.87c0-13.79.05-27.59,0-41.38,0-9.1-4.44-14.9-11.23-14.21-8.21.82-10.57,6.52-10.55,14,.08,27.59,0,55.19.07,82.78,0,9.34,4.23,14.81,11.16,14.2,8.39-.74,10.56-6.69,10.57-14Q279.66,246.33,279.63,225.64ZM123.5,224.52h0c0,14.41.06,28.83,0,43.24,0,7.64,2.78,13.35,11.06,13.17,7.75-.17,10.24-5.71,10.21-13q-.15-42.32,0-84.61c0-7.74-2.94-13.29-11.09-13.18-7.79.1-10.25,5.75-10.18,13C123.6,196.94,123.5,210.73,123.5,224.52Zm257.33-9.78c-8.61-1.24-10.49,3.45-11.34,10.08-4.75,37.07-20.15,69-46.88,95.27-3.12,3.07-7.53,6.56-2.74,10.88,4.16,3.75,7.39-.56,10.24-3.37a168.37,168.37,0,0,0,35.21-49.71C374.51,257.79,380.24,236.81,380.83,214.74ZM89.68,331.56c0-1.73-.33-2.76-4.05-6.05-22.17-19.65-37.27-43.82-46.23-71.92-1.24-3.89-2.77-7.65-7.61-6.14s-4,5.3-2.63,9.27a200.87,200.87,0,0,0,18.46,40c8.38,13.8,19.09,25.66,30.79,36.68,2.38,2.25,4.75,4.23,8.29,2.61C88.62,335.17,89.32,333.47,89.68,331.56ZM167,77.64c6.11.17,9.59-2.36,11.18-6.87,1.75-5,.21-9.33-4.17-12.36-4.05-2.81-9.73-3.39-12,.36-6,10-16.34,10.1-25.51,13-3.67,1.15-6.29,2.82-6.22,7,.14,8.8-6.15,14.57-11.29,19.85-4.66,4.79-7,9-6.43,15.41.67,8.07.84,15.75-11.52,12.12-3.61-1.06-6.5,1.93-7.26,5.8-.68,3.44.59,6.31,3.94,7.67,3.55,1.43,6.63.66,9.19-2.48,6.4-7.87,12.06-15.55,10.11-27-1-5.79,4.21-9.91,10.09-9,4.2.62,7.32.76,9.94-2.65,2.85-3.7,1-6.67-1.05-10.2-2.31-4-3.9-10.59,1.6-11.9,8-1.91,16.77-10.26,25.23-.21C163.83,77.32,166.19,77.38,167,77.64ZM119.63,224.58h.05c0-8.46,0-16.92,0-25.38,0-4.83-.2-10.27-6.75-10.22-6,0-7.55,4.82-7.57,9.93q-.12,26.33,0,52.65c0,4.72,1.52,9,7.17,9.22,6,.25,7-4.26,7.09-8.93C119.72,242.76,119.63,233.67,119.63,224.58Zm177.84.07c0-8.47-.08-17,0-25.42.07-5.26-1.28-9.89-7.19-10.2-6.57-.33-7,4.93-7.05,9.87q-.08,26.35-.09,52.72c0,4.75,1,9.16,6.89,9.18,5.61,0,7.41-3.83,7.42-8.85Q297.48,238.3,297.47,224.65Zm1.74,62.08c5.65,3.43,12,1.7,17.16,7,3,3.07,8.55.7,9.63-5,.52-2.73-.07-5.91,2.76-7.54,8.56-5,8.58-12.9,8-21.28-.3-4.23-.53-8,4.44-11,6.05-3.71,5.66-10.92.44-16.06-5.48-5.39-7.46-25.28-2.54-31.55,3.32-4.23,3.87-7.89,0-11.47a6.37,6.37,0,0,0-9.34.19c-3.7,3.74-2.89,7.43.46,11.54,5.07,6.23,3.07,25.39-2.67,31.49-4.22,4.49-5.81,10.67-.85,14.09,9.34,6.42,5.49,14.94,5.43,22.76,0,5.17-5.26,9.92-8.81,9.68C314.08,279,308.8,289,299.21,286.73ZM103.89,104.58l-2.62-2.77c-7.37,7.07-14.47,14.47-22.21,21.11-5.7,4.89-8.74,10.25-7.7,17.86.6,4.41-.14,8-4.28,11.43-5.45,4.49-5.27,10.9.33,15.41,3.49,2.81,4.18,5.68,4.11,9.62q-.24,13.65,0,27.32c.07,4.77-.69,9.77,3.15,16.08,2.63-15.32,1.06-28.78,1.42-42.15.11-4-.25-7.37,4.21-10.39,6.42-4.34,6.19-11.71,0-16.55-3.13-2.43-4-4.72-4.34-8.44-.81-7.88,1.57-13.62,7.74-18.78C90.85,118.3,97.18,111.21,103.89,104.58ZM372.06,213c7.42.1,13.31-6.9,10.94-13.39A45.94,45.94,0,0,1,380.66,186c-.59-11-3.2-21.63-6.27-32.13-1.11-3.76-2.35-8.84-7.91-7s-3.34,6.62-2.24,10.38a202.84,202.84,0,0,1,5.58,25.61c.71,4.59,1.3,7.93-3.7,11-3.69,2.23-5.19,6.78-3.2,11.65C364.76,210,367.87,212.48,372.06,213ZM334.17,176.1c1-1.14,1.56-1.53,1.75-2.06,2.67-7.59-7-8.75-7.47-13.51s7.14-10.56,2.15-15c-6.52-5.8-6.05-12.37-6.12-19.46a7,7,0,0,0-3-5.63c-10-7.85-17.42-20.6-33.35-17.47-1.7.34-3.82-1.78-5.83-2.54-4-1.51-7.35-.81-9.77,3s-1.11,6.77,1.94,9c3.45,2.57,7.73,2.7,9.88-1.13,2.66-4.7,6.49-4.08,10.44-4.06,5.5,0,24.61,13.51,25.16,18.89s3.09,11.22-4.12,15.71c-7.86,4.9-5.95,14.21,2.85,18.35C325.62,163.49,331.68,167.55,334.17,176.1ZM179,301.1c-.51.26-1.36.43-1.46.81a25.53,25.53,0,0,0-.77,4.53c-.74,9.88-11.19,15.21-20.06,10.22-5.34-3-10.47-2.73-14.11,2.39-2.11,3-4.27,3.85-7.7,3.89-9,.11-14.46-4.21-17.42-12.46-1.5-4.18-4.86-5.89-9-4.54-3.56,1.17-5.7,4.11-5,8,.8,4.25,4.19,7.36,8,6,5.09-1.87,7.71.7,10.71,3.35s6.22,4,10.25,3.64c4.25-.43,7.19.58,10,4.74,4.8,7.12,15.31,6.17,18.07-1.78,2-5.72,5.61-7.46,10.26-9.32C182,316.08,183.07,313.42,179,301.1Zm-67-6.21c-6.3-3.32-13.17-1.81-19.77-2.46-3.15-.31-7.58,2-9.11-2.42-1.38-4-.07-7.26,4-10.29,6.44-4.84,6.22-12.44-.63-16.39-6.42-3.7-6.62-7-3-12.64,2.51-3.89,1.65-8.2-2.72-10.48-3.24-1.69-7-1.36-9.28,2-2.77,4.08-1.67,7.78,2.3,10.51,4.84,3.33,4.55,6.74.43,10.36-4.32,3.78-6.39,9.13-2.67,13.26,4.44,4.93,8.28,9.21,7.86,16.36-.11,1.88,2.7,3.67,5,3.68C93.53,296.44,102.79,297.47,112,294.89ZM232.78,56.54c-5.36.08-9,2.72-10.44,7.81-1.29,4.66.11,8.76,4.33,11.47,4.83,3.09,10.47,3.26,13.54-1.3,3.54-5.28,6.71-3.49,10.89-2.16,3.79,1.2,6.27,3.68,9,6.35,3.09,3.06,6.94,2.87,10.06-.27,2.34-2.35,3.35-5.17,1.25-8.47-2.39-3.78-6.13-5.44-9.63-3.32-9,5.46-15,1.74-20.18-5.54A10,10,0,0,0,232.78,56.54Zm-8.94,244.1c-1,1-1.63,1.43-1.64,1.84-.19,6.57-.39,13.15-.39,19.72,0,8.4,5.19,13.65,13.83,13.86,7.52.18,15.08-.4,22.57.15,7.16.52,12.4-1.81,17.26-7,4.4-4.75,8.15-11,16.67-9.77,3.28.47,5.33-3,5.32-6.54,0-3.92-2-6.57-5.91-7.29s-6.51,1.2-8,4.88c-5.87,14.45-15.2,23.66-32.25,21.59-4-.48-8.14,0-12.21-.07-10.71-.08-13-2.62-13.49-13.15C225.34,313,227.31,306.7,223.84,300.64ZM331.36,77.77A13.29,13.29,0,0,0,318.78,65c-6.64-.1-12.71,5.72-13,12.45-.28,7,6,13.32,13.09,13.19C325.46,90.49,331.37,84.41,331.36,77.77Zm35.54,54.32c-5.5-12.66-12.09-24.69-21.12-35.22-1.83-2.14-4.51-1.88-6.72,0s-2.59,4.22-.9,6.66c6.95,10,13.64,20.2,18.55,31.44,1.14,2.62,3.49,3.52,6.25,2.79S366.74,134.86,366.9,132.09Zm-65.7,93.15c0,3.45-.08,6.91,0,10.37.07,2-.78,4.94,2.22,5.39a4.38,4.38,0,0,0,5.05-4.41c.27-7.84.2-15.69-.07-23.53a4.22,4.22,0,0,0-4.49-4c-3.36,0-2.65,2.86-2.71,4.9C301.13,217.7,301.21,221.47,301.2,225.24Zm-199.66-.67h.08c0-3.44.1-6.9,0-10.34-.09-2,.71-4.86-2.44-5.22a4.08,4.08,0,0,0-4.63,3.77c-.33,8.11-.4,16.25-.08,24.35a4.34,4.34,0,0,0,4.58,4c3-.35,2.46-3.14,2.51-5.24C101.6,232.1,101.54,228.33,101.54,224.57ZM256.76,301.4c-.3-4.37-2.31-7.18-6.93-7.29s-7,2.37-7.16,6.86c-.21,4.66,2.61,7.22,6.77,7.35S256.47,306,256.76,301.4ZM21.88,214c1.34,5.77-2,13,6.06,15.79,2.91,1,5-1.59,5.52-4.77C34.82,216.57,29.53,214.62,21.88,214ZM184.41,342.47c-.28-3.4-2.93-5.7-6.68-5.68a6.11,6.11,0,0,0-6.44,6.65c.09,4.1,2.71,6.35,6.71,6.3S184.4,347.52,184.41,342.47ZM109.7,169c-.32-3.63-2.48-6.05-5.89-6.05s-6.09,2.21-6.07,5.83c0,3.85,2.38,6.58,6.37,6.52C107.8,175.24,109.35,172.45,109.7,169Zm195.4.12c-.2-3.61-2.29-6-5.72-6.18a5.47,5.47,0,0,0-6.11,5.64c-.15,4,1.86,6.78,6,6.7C302.81,175.19,304.79,172.77,305.1,169.11Zm-5.87-42.28c-3.4.7-5.87,2.24-5.89,6,0,3.59,2,6.19,5.37,6.34,3.8.18,6.45-2.12,6.34-6.27C305,129.27,302.43,127.62,299.23,126.83Z" transform="translate(-1.09 -3.21)"/><path class="cls-1" d="M201.08,35.6c-2.89-1.05-5.52-2.48-5-5.86.5-3,2.84-5.06,6-4.54a5,5,0,0,1,4.47,5.19C206.4,33.6,204,35,201.08,35.6Z" transform="translate(-1.09 -3.21)"/><path class="cls-1" d="M206.81,373.11a5.57,5.57,0,0,1-5.33,5.42A4.8,4.8,0,0,1,196,373.6a5,5,0,0,1,5.13-5.37C204.35,368.06,206.09,370.14,206.81,373.11Z" transform="translate(-1.09 -3.21)"/></svg>